<svg width="18" height="18" viewBox="0 0 18 18" fill="none" xmlns="http://www.w3.org/2000/svg">
<path d="M10.0912 5.59125C10.2497 5.44038 10.4606 5.35697 10.6794 5.35862C10.8982 5.36028 11.1078 5.44687 11.264 5.60013C11.4202 5.75338 11.5107 5.96131 11.5165 6.18005C11.5223 6.39878 11.4429 6.61121 11.295 6.7725L6.80624 12.3863C6.72906 12.4694 6.6359 12.5361 6.53234 12.5824C6.42878 12.6287 6.31695 12.6537 6.20353 12.6558C6.0901 12.6579 5.97742 12.6371 5.87222 12.5946C5.76702 12.5522 5.67145 12.489 5.59124 12.4088L2.61449 9.432C2.5316 9.35476 2.46511 9.26161 2.41899 9.15811C2.37287 9.05461 2.34808 8.94288 2.34608 8.82959C2.34408 8.7163 2.36492 8.60377 2.40736 8.49871C2.44979 8.39364 2.51295 8.29821 2.59308 8.21808C2.6732 8.13796 2.76864 8.0748 2.8737 8.03236C2.97876 7.98993 3.09129 7.96909 3.20458 7.97109C3.31787 7.97309 3.4296 7.99788 3.5331 8.044C3.6366 8.09012 3.72975 8.1566 3.80699 8.2395L6.16274 10.5941L10.0687 5.616C10.0758 5.60732 10.0833 5.59905 10.0912 5.59125V5.59125ZM9.05624 11.3738L10.0912 12.4088C10.1714 12.4888 10.2669 12.5519 10.372 12.5942C10.4771 12.6366 10.5897 12.6573 10.703 12.6552C10.8162 12.6531 10.9279 12.6282 11.0314 12.582C11.1349 12.5358 11.2279 12.4692 11.3051 12.3863L15.7961 6.7725C15.8768 6.69285 15.9406 6.59776 15.9837 6.49291C16.0268 6.38806 16.0483 6.2756 16.047 6.16224C16.0457 6.04888 16.0215 5.93694 15.976 5.83313C15.9305 5.72931 15.8645 5.63573 15.782 5.55799C15.6994 5.48024 15.6021 5.41992 15.4958 5.38063C15.3894 5.34133 15.2763 5.32387 15.163 5.32929C15.0498 5.3347 14.9388 5.36288 14.8367 5.41214C14.7346 5.46141 14.6435 5.53074 14.5687 5.616L10.6616 10.5941L10.116 10.0474L9.05512 11.3738H9.05624Z" fill="black"/>
</svg>
