<svg width="250" height="250" viewBox="0 0 250 250" fill="none" xmlns="http://www.w3.org/2000/svg">
<path d="M138.021 20.8333H171.198C176.5 20.8333 181.688 22.3021 186.198 25.0833L215.031 42.8229C216.168 43.5223 217.107 44.5013 217.758 45.6666C218.409 46.8318 218.75 48.1444 218.75 49.4792V65.1042C218.75 71.3202 216.281 77.2816 211.885 81.677C207.49 86.0724 201.529 88.5417 195.313 88.5417H192.708V182.781C203.094 184.177 210.365 188.563 214.531 196.063C216.854 200.26 217.844 204.813 218.302 209.01C218.75 213.083 218.75 217.344 218.75 221.094V221.354C218.75 223.426 217.927 225.413 216.462 226.878C214.997 228.344 213.01 229.167 210.938 229.167H60.7604C52.02 229.174 43.5186 226.314 36.5607 221.024C29.6029 215.734 24.5731 208.307 22.2433 199.883C19.9134 191.458 20.4122 182.503 23.6631 174.389C26.914 166.276 32.7374 159.453 40.2396 154.969C42.0174 153.902 44.146 153.586 46.1571 154.089C48.1682 154.592 49.8972 155.873 50.9636 157.651C52.0299 159.429 52.3464 161.557 51.8434 163.569C51.3404 165.58 50.059 167.309 48.2813 168.375C43.7132 171.103 40.1667 175.255 38.1861 180.193C36.2055 185.131 35.9002 190.583 37.3172 195.712C38.7341 200.84 41.795 205.362 46.0299 208.583C50.2648 211.804 55.4398 213.546 60.7604 213.542C64.0833 213.542 66.1458 212.677 67.5208 211.708C68.9688 210.688 70.1042 209.229 70.9688 207.469C72.0605 205.215 72.7211 202.778 72.9167 200.281V199.917L72.9583 198.427C73.2699 190.775 74.1754 183.158 75.6667 175.646C78.375 162.198 83.9688 144.729 96 132.531C104.833 123.573 109.635 110.458 112.115 97.4896C114.583 84.6875 114.583 73 114.583 67.7083V44.2708C114.583 38.0548 117.053 32.0934 121.448 27.698C125.843 23.3026 131.805 20.8333 138.021 20.8333V20.8333ZM80.7292 200.521L88.5417 200.792V200.854L88.5313 200.958L88.5104 201.25C88.4109 202.578 88.2371 203.9 87.9896 205.208C87.5833 207.427 86.8229 210.417 85.3854 213.542H160.906C159.969 208.396 157.365 203.063 150.354 199.792C148.755 199.094 147.064 198.631 145.333 198.417C142.914 198.043 140.469 197.851 138.021 197.844L135.073 197.885L133.604 197.906H132.979C131.934 197.959 130.889 197.8 129.906 197.441C128.923 197.082 128.022 196.529 127.257 195.814C126.492 195.1 125.878 194.24 125.452 193.284C125.026 192.328 124.797 191.296 124.777 190.249C124.758 189.203 124.948 188.163 125.338 187.192C125.729 186.221 126.31 185.338 127.048 184.596C127.785 183.854 128.665 183.267 129.634 182.871C130.603 182.475 131.641 182.278 132.688 182.292L133.333 182.281L134.823 182.26L138.021 182.219C140.469 182.219 143.177 182.385 145.833 182.708V158.885C145.833 156.813 146.656 154.826 148.122 153.361C149.587 151.896 151.574 151.073 153.646 151.073C155.718 151.073 157.705 151.896 159.17 153.361C160.635 154.826 161.458 156.813 161.458 158.885V188.094C172.552 195.198 175.771 205.833 176.698 213.542H202.99C202.943 212.602 202.87 211.664 202.771 210.729C202.427 207.594 201.792 205.313 200.865 203.646C199.51 201.208 196.354 197.917 184.896 197.917C182.824 197.917 180.837 197.094 179.372 195.628C177.906 194.163 177.083 192.176 177.083 190.104V80.7292C177.083 78.6572 177.906 76.67 179.372 75.2049C180.837 73.7398 182.824 72.9167 184.896 72.9167H195.313C197.385 72.9167 199.372 72.0936 200.837 70.6284C202.302 69.1633 203.125 67.1762 203.125 65.1042V53.8542L178.01 38.3854C175.962 37.1247 173.603 36.4575 171.198 36.4583H138.01C135.94 36.4611 133.956 37.2854 132.493 38.7502C131.03 40.2151 130.208 42.2006 130.208 44.2708V67.5208C130.268 69.6266 131.018 71.6543 132.344 73.2917C133.396 74.4792 135.052 75.5208 138.021 75.5208C141.01 75.5208 142.74 74.4688 143.813 73.2396C145.187 71.5284 145.904 69.3815 145.833 67.1875C145.833 65.1155 146.656 63.1284 148.122 61.6632C149.587 60.1981 151.574 59.375 153.646 59.375C155.718 59.375 157.705 60.1981 159.17 61.6632C160.635 63.1284 161.458 65.1155 161.458 67.1875C161.458 72.9583 159.615 78.9063 155.563 83.5313C151.396 88.2917 145.313 91.1458 138.021 91.1458C134.978 91.1717 131.957 90.6276 129.115 89.5417C128.704 93.1897 128.155 96.8207 127.469 100.427C124.74 114.656 119.125 131.344 107.125 143.51C98.3229 152.427 93.5 166.219 90.9896 178.719C89.5902 185.793 88.7715 192.97 88.5417 200.177V200.792L80.7292 200.521V200.521ZM169.271 229.167V221.354V229.167Z" fill="black"/>
</svg>
